<mxfile host="Electron" modified="2024-05-13T20:09:39.051Z" agent="Mozilla/5.0 (Windows NT 10.0; Win64; x64) AppleWebKit/537.36 (KHTML, like Gecko) draw.io/21.2.8 Chrome/112.0.5615.165 Electron/24.2.0 Safari/537.36" etag="ypt0lqZIdQSyMYzqdcsS" version="21.2.8" type="device">
  <diagram name="Page-1" id="h0olpOWMsWojmOW8QkM0">
    <mxGraphModel dx="607" dy="361" grid="1" gridSize="10" guides="1" tooltips="1" connect="1" arrows="1" fold="1" page="1" pageScale="1" pageWidth="850" pageHeight="1100" math="0" shadow="0">
      <root>
        <mxCell id="0" />
        <mxCell id="1" parent="0" />
        <mxCell id="LO7yZgUjoGViSXZvYvZ7-68" style="edgeStyle=orthogonalEdgeStyle;rounded=0;orthogonalLoop=1;jettySize=auto;html=1;exitX=1;exitY=0.5;exitDx=0;exitDy=0;entryX=0;entryY=0.5;entryDx=0;entryDy=0;" edge="1" parent="1" source="LO7yZgUjoGViSXZvYvZ7-59" target="LO7yZgUjoGViSXZvYvZ7-67">
          <mxGeometry relative="1" as="geometry" />
        </mxCell>
        <mxCell id="LO7yZgUjoGViSXZvYvZ7-72" value="Natural Language" style="edgeLabel;html=1;align=center;verticalAlign=middle;resizable=0;points=[];" vertex="1" connectable="0" parent="LO7yZgUjoGViSXZvYvZ7-68">
          <mxGeometry x="-0.1952" relative="1" as="geometry">
            <mxPoint as="offset" />
          </mxGeometry>
        </mxCell>
        <mxCell id="LO7yZgUjoGViSXZvYvZ7-70" style="rounded=0;orthogonalLoop=1;jettySize=auto;html=1;exitX=0;exitY=1;exitDx=0;exitDy=0;edgeStyle=orthogonalEdgeStyle;entryX=0.5;entryY=1;entryDx=0;entryDy=0;" edge="1" parent="1" source="LO7yZgUjoGViSXZvYvZ7-59" target="LO7yZgUjoGViSXZvYvZ7-76">
          <mxGeometry relative="1" as="geometry">
            <mxPoint x="309.9999999999999" y="200" as="targetPoint" />
            <Array as="points">
              <mxPoint x="472" y="160" />
              <mxPoint x="230" y="160" />
            </Array>
          </mxGeometry>
        </mxCell>
        <mxCell id="LO7yZgUjoGViSXZvYvZ7-71" value="SPARQL Query" style="edgeLabel;html=1;align=center;verticalAlign=middle;resizable=0;points=[];" vertex="1" connectable="0" parent="LO7yZgUjoGViSXZvYvZ7-70">
          <mxGeometry x="0.0373" y="-1" relative="1" as="geometry">
            <mxPoint x="19" as="offset" />
          </mxGeometry>
        </mxCell>
        <mxCell id="LO7yZgUjoGViSXZvYvZ7-79" style="edgeStyle=orthogonalEdgeStyle;rounded=0;orthogonalLoop=1;jettySize=auto;html=1;exitX=0.5;exitY=1;exitDx=0;exitDy=0;" edge="1" parent="1" source="LO7yZgUjoGViSXZvYvZ7-59">
          <mxGeometry relative="1" as="geometry">
            <mxPoint x="499.8965517241379" y="240" as="targetPoint" />
          </mxGeometry>
        </mxCell>
        <mxCell id="LO7yZgUjoGViSXZvYvZ7-82" value="Updated SPARQL Query" style="edgeLabel;html=1;align=center;verticalAlign=middle;resizable=0;points=[];" vertex="1" connectable="0" parent="LO7yZgUjoGViSXZvYvZ7-79">
          <mxGeometry x="-0.3606" y="-1" relative="1" as="geometry">
            <mxPoint as="offset" />
          </mxGeometry>
        </mxCell>
        <mxCell id="LO7yZgUjoGViSXZvYvZ7-59" value="Forward Data" style="ellipse;whiteSpace=wrap;html=1;aspect=fixed;" vertex="1" parent="1">
          <mxGeometry x="460" y="60" width="80" height="80" as="geometry" />
        </mxCell>
        <mxCell id="LO7yZgUjoGViSXZvYvZ7-65" value="" style="endArrow=classic;html=1;rounded=0;entryX=0;entryY=0.5;entryDx=0;entryDy=0;" edge="1" parent="1" target="LO7yZgUjoGViSXZvYvZ7-59">
          <mxGeometry width="50" height="50" relative="1" as="geometry">
            <mxPoint x="280" y="100" as="sourcePoint" />
            <mxPoint x="350" y="80" as="targetPoint" />
          </mxGeometry>
        </mxCell>
        <mxCell id="LO7yZgUjoGViSXZvYvZ7-66" value="Natural Language" style="edgeLabel;html=1;align=center;verticalAlign=middle;resizable=0;points=[];" vertex="1" connectable="0" parent="LO7yZgUjoGViSXZvYvZ7-65">
          <mxGeometry x="-0.1692" y="2" relative="1" as="geometry">
            <mxPoint as="offset" />
          </mxGeometry>
        </mxCell>
        <mxCell id="LO7yZgUjoGViSXZvYvZ7-73" style="edgeStyle=orthogonalEdgeStyle;rounded=0;orthogonalLoop=1;jettySize=auto;html=1;exitX=0.5;exitY=0;exitDx=0;exitDy=0;entryX=0.5;entryY=0;entryDx=0;entryDy=0;" edge="1" parent="1" source="LO7yZgUjoGViSXZvYvZ7-67" target="LO7yZgUjoGViSXZvYvZ7-59">
          <mxGeometry relative="1" as="geometry" />
        </mxCell>
        <mxCell id="LO7yZgUjoGViSXZvYvZ7-74" value="SPARQL Query" style="edgeLabel;html=1;align=center;verticalAlign=middle;resizable=0;points=[];" vertex="1" connectable="0" parent="LO7yZgUjoGViSXZvYvZ7-73">
          <mxGeometry x="0.1705" y="-1" relative="1" as="geometry">
            <mxPoint as="offset" />
          </mxGeometry>
        </mxCell>
        <mxCell id="LO7yZgUjoGViSXZvYvZ7-67" value="LLM" style="rounded=0;whiteSpace=wrap;html=1;" vertex="1" parent="1">
          <mxGeometry x="680" y="70" width="120" height="60" as="geometry" />
        </mxCell>
        <mxCell id="LO7yZgUjoGViSXZvYvZ7-77" style="edgeStyle=orthogonalEdgeStyle;rounded=0;orthogonalLoop=1;jettySize=auto;html=1;exitX=0.5;exitY=0;exitDx=0;exitDy=0;entryX=0;entryY=0;entryDx=0;entryDy=0;" edge="1" parent="1" source="LO7yZgUjoGViSXZvYvZ7-76" target="LO7yZgUjoGViSXZvYvZ7-59">
          <mxGeometry relative="1" as="geometry">
            <Array as="points">
              <mxPoint x="230" y="70" />
              <mxPoint x="472" y="70" />
            </Array>
          </mxGeometry>
        </mxCell>
        <mxCell id="LO7yZgUjoGViSXZvYvZ7-78" value="Execution Request" style="edgeLabel;html=1;align=center;verticalAlign=middle;resizable=0;points=[];" vertex="1" connectable="0" parent="LO7yZgUjoGViSXZvYvZ7-77">
          <mxGeometry x="0.1042" y="-1" relative="1" as="geometry">
            <mxPoint as="offset" />
          </mxGeometry>
        </mxCell>
        <mxCell id="LO7yZgUjoGViSXZvYvZ7-76" value="User" style="rounded=0;whiteSpace=wrap;html=1;" vertex="1" parent="1">
          <mxGeometry x="180" y="80" width="100" height="40" as="geometry" />
        </mxCell>
        <mxCell id="LO7yZgUjoGViSXZvYvZ7-85" style="edgeStyle=orthogonalEdgeStyle;rounded=0;orthogonalLoop=1;jettySize=auto;html=1;exitX=0;exitY=0.5;exitDx=0;exitDy=0;entryX=1;entryY=0.5;entryDx=0;entryDy=0;" edge="1" parent="1" source="LO7yZgUjoGViSXZvYvZ7-81" target="LO7yZgUjoGViSXZvYvZ7-84">
          <mxGeometry relative="1" as="geometry" />
        </mxCell>
        <mxCell id="LO7yZgUjoGViSXZvYvZ7-86" value="Result" style="edgeLabel;html=1;align=center;verticalAlign=middle;resizable=0;points=[];" vertex="1" connectable="0" parent="LO7yZgUjoGViSXZvYvZ7-85">
          <mxGeometry x="-0.3595" y="1" relative="1" as="geometry">
            <mxPoint x="-8" y="-1" as="offset" />
          </mxGeometry>
        </mxCell>
        <mxCell id="LO7yZgUjoGViSXZvYvZ7-81" value="Query Local Ontology" style="ellipse;whiteSpace=wrap;html=1;aspect=fixed;" vertex="1" parent="1">
          <mxGeometry x="445" y="240" width="110" height="110" as="geometry" />
        </mxCell>
        <mxCell id="LO7yZgUjoGViSXZvYvZ7-87" style="edgeStyle=orthogonalEdgeStyle;rounded=0;orthogonalLoop=1;jettySize=auto;html=1;exitX=0;exitY=0.5;exitDx=0;exitDy=0;entryX=0;entryY=1;entryDx=0;entryDy=0;" edge="1" parent="1" source="LO7yZgUjoGViSXZvYvZ7-84" target="LO7yZgUjoGViSXZvYvZ7-76">
          <mxGeometry relative="1" as="geometry" />
        </mxCell>
        <mxCell id="LO7yZgUjoGViSXZvYvZ7-88" value="Formatted Results" style="edgeLabel;html=1;align=center;verticalAlign=middle;resizable=0;points=[];" vertex="1" connectable="0" parent="LO7yZgUjoGViSXZvYvZ7-87">
          <mxGeometry x="0.0728" y="3" relative="1" as="geometry">
            <mxPoint as="offset" />
          </mxGeometry>
        </mxCell>
        <mxCell id="LO7yZgUjoGViSXZvYvZ7-84" value="Build HTML Representation of Results" style="ellipse;whiteSpace=wrap;html=1;aspect=fixed;" vertex="1" parent="1">
          <mxGeometry x="220" y="240" width="110" height="110" as="geometry" />
        </mxCell>
      </root>
    </mxGraphModel>
  </diagram>
</mxfile>
